<svg xmlns="http://www.w3.org/2000/svg" viewBox="0 0 792 1224"><defs><style>.cls-1{fill:#101429;}.cls-2{fill:#4facac;}.cls-3{fill:#b2ae9a;}.cls-4{fill:#f0e8cb;}.cls-5{fill:#cb4645;}.cls-6{fill:#f3ca15;}.cls-7{fill:#d9d3b9;}.cls-8{fill:#c6c1aa;}.cls-9{fill:none;stroke:#4facac;stroke-miterlimit:10;stroke-width:0.53px;}</style></defs><title>Artboard 1</title><g id="back"><path class="cls-1" d="M360.47,266H431.3s-15.64-57.81-35.3-57.81C375.86,208.19,360.47,266,360.47,266Z"/><polygon class="cls-2" points="396 266 396 294.54 357.84 294.54 360.47 266 396 266"/><polygon class="cls-3" points="395.88 266 395.88 294.54 434.04 294.54 431.41 266 395.88 266"/><rect class="cls-3" x="357.84" y="294.54" width="38.1" height="233.51"/><rect class="cls-2" x="395.91" y="294.54" width="38.1" height="233.51"/></g><g id="front-bottom"><path class="cls-4" d="M371.31,532.73h47.3s12.2,34,7.13,39.8-22,9.2-30.35,9.2-25.4-4.13-29.53-8.26C360,567.65,371.31,532.73,371.31,532.73Z"/></g><g id="sides"><polygon class="cls-5" points="336.81 304.03 355.74 343.04 317.87 343.04 336.81 304.03"/><rect class="cls-4" x="317.87" y="343.04" width="18.93" height="228.65"/><rect class="cls-3" x="336.81" y="343.04" width="18.93" height="228.65"/><polygon class="cls-5" points="453.98 304.03 472.91 343.04 435.04 343.04 453.98 304.03"/><rect class="cls-3" x="435.04" y="343.04" width="18.93" height="228.65"/><rect class="cls-4" x="453.98" y="343.04" width="18.93" height="228.65"/></g><g id="Layer_14" data-name="Layer 14"><polygon class="cls-5" points="322.93 571.69 317.87 595.52 355.74 595.52 351.65 571.69 322.93 571.69"/><polygon class="cls-5" points="440.1 571.69 435.04 595.52 472.91 595.52 468.82 571.69 440.1 571.69"/></g><g id="front-bottom-wing"><polygon class="cls-3" points="387.54 554.67 391.59 544.43 391.75 557.68 387.54 557.68 387.54 554.67"/><polygon class="cls-3" points="404.46 554.67 400.41 544.43 400.25 557.68 404.46 557.68 404.46 554.67"/><path class="cls-6" d="M400.52,556.73c0,34.44-2,62.35-4.52,62.35s-4.51-27.91-4.51-62.35c0-9.46.15-18.43.43-26.46h8.17C400.36,538.3,400.52,547.27,400.52,556.73Z"/><path class="cls-1" d="M396.91,540.2c0,12.94-.41,23.42-.91,23.42s-.9-10.48-.9-23.42c0-3.55,0-6.92.09-9.93h1.63C396.88,533.28,396.91,536.65,396.91,540.2Z"/></g><g id="Layer_16" data-name="Layer 16"><path class="cls-7" d="M372,393.75V527.4H298.21s1.26-14.48,5.44-21.21c5.26-8.45,24.37-17.3,30.14-22.65,6.11-5.67,18.26-14.11,24.48-29.16,5.82-14.08,6.16-41.62,8.64-50.3C369.16,396.19,372,393.75,372,393.75Z"/><path class="cls-1" d="M372.18,393.3c.15,44.59.32,89.4.3,134.1v.5H297.66l0-.54h0a78.14,78.14,0,0,1,1-10.12,42.14,42.14,0,0,1,2.76-10c.16-.41.4-.81.6-1.22l.32-.6.38-.58.77-1.14.87-1a34.41,34.41,0,0,1,3.76-3.69,84,84,0,0,1,8.24-6.12c2.82-1.9,5.67-3.69,8.5-5.47a57.07,57.07,0,0,0,7.88-5.66c2.58-2.31,5.15-4.4,7.6-6.63a83,83,0,0,0,6.94-7,52.26,52.26,0,0,0,10-16.51,106.72,106.72,0,0,0,4.28-19.31c1-6.6,1.7-13.27,2.71-19.95a55.69,55.69,0,0,1,2.18-10,32.79,32.79,0,0,1,2-4.72,22.46,22.46,0,0,1,1.33-2.22c.25-.36.5-.71.78-1.05.14-.17.29-.34.44-.5l.23-.24.12-.13.07-.06.07-.06A.57.57,0,0,1,372.18,393.3Zm-.41.91a.46.46,0,0,0,.48,0c.07-.06,0,0,0,0l0,.05-.1.11-.18.22c-.12.16-.25.31-.36.48-.23.33-.45.67-.65,1a22.32,22.32,0,0,0-1.11,2.18,37.16,37.16,0,0,0-1.68,4.64,52.31,52.31,0,0,0-1.58,9.76c-.61,6.66-1.1,13.37-1.87,20.08s-1.76,13.45-3.93,20.08a54.54,54.54,0,0,1-10.48,17.88,86.43,86.43,0,0,1-7.22,7.35c-2.51,2.3-5.14,4.47-7.55,6.66-.28.26-.64.57-1,.86s-.71.61-1.06.86c-.71.53-1.42,1.05-2.14,1.52-1.43,1-2.87,1.88-4.3,2.78L318.45,496c-2.81,1.78-5.56,3.61-8.13,5.6a33.35,33.35,0,0,0-3.58,3.19c-.26.29-.54.57-.8.86l-.69.9-.36.45-.29.5a10.87,10.87,0,0,0-.58,1,45.3,45.3,0,0,0-3.27,9.19c-.82,3.21-1.51,6.5-2,9.79h0l-.5-.54H372l-.5.5C371.45,483,371.62,438.71,371.77,394.21Z"/><path class="cls-7" d="M417.4,393.75V527.4h73.77s-1.26-14.48-5.45-21.21c-5.25-8.45-24.37-17.3-30.14-22.65-6.11-5.67-18.26-14.11-24.48-29.16-5.82-14.08-6.15-41.62-8.63-50.3C420.21,396.19,417.4,393.75,417.4,393.75Z"/><path class="cls-1" d="M417.61,394.21c.15,44.5.31,88.79.29,133.19l-.5-.5h73.77l-.5.54h0c-.54-3.29-1.22-6.58-2-9.79a45.93,45.93,0,0,0-3.28-9.19,10.8,10.8,0,0,0-.57-1l-.3-.5-.35-.45-.7-.9c-.26-.29-.53-.57-.8-.86a32.41,32.41,0,0,0-3.58-3.19c-2.56-2-5.32-3.82-8.13-5.6l-8.56-5.26c-1.43-.9-2.87-1.8-4.3-2.78-.71-.47-1.42-1-2.14-1.52-.35-.25-.7-.56-1.06-.86s-.71-.6-1-.86c-2.41-2.19-5-4.36-7.55-6.66a86.43,86.43,0,0,1-7.22-7.35,54.72,54.72,0,0,1-10.48-17.88c-2.16-6.63-3.11-13.37-3.93-20.08s-1.26-13.42-1.86-20.08a53.16,53.16,0,0,0-1.59-9.76,37.11,37.11,0,0,0-1.67-4.64c-.33-.75-.71-1.47-1.11-2.18-.21-.35-.42-.69-.66-1-.11-.17-.23-.32-.35-.48l-.19-.22-.1-.11,0-.05h0A.48.48,0,0,0,417.61,394.21Zm-.42-.91a.56.56,0,0,1,.54.08l.07.06.07.06.12.13.24.24.43.5a13,13,0,0,1,.78,1.05,20.76,20.76,0,0,1,1.34,2.22,32.74,32.74,0,0,1,2,4.72,54,54,0,0,1,2.18,10c1,6.68,1.68,13.35,2.71,19.95A106.73,106.73,0,0,0,432,451.62a51.9,51.9,0,0,0,10,16.51,81.37,81.37,0,0,0,6.93,7c2.45,2.23,5,4.32,7.6,6.63a57.79,57.79,0,0,0,7.89,5.66c2.82,1.78,5.67,3.57,8.49,5.47a82.84,82.84,0,0,1,8.24,6.12,34.41,34.41,0,0,1,3.76,3.69c.29.35.59.68.87,1l.78,1.14.38.58.31.6a11.45,11.45,0,0,1,.6,1.22,42.64,42.64,0,0,1,2.77,10,79.92,79.92,0,0,1,1,10.12h0l.06.54H416.9v-.5C416.88,482.7,417,437.89,417.19,393.3Z"/><polygon class="cls-8" points="490.71 527.83 486.05 541.04 428.71 550.89 414.97 527.83 490.71 527.83"/><path class="cls-1" d="M491.12,527.54c-1.57,4.59-3.27,9.16-5,13.54l0,.06h-.06L428.73,551h-.07l0,0-14.08-22.87-.47-.75h.9C440.35,527.31,465.8,527.42,491.12,527.54Zm-.81.57c-25.18.12-50.23.23-75.34.21l.43-.75,13.39,23.27-.1,0L486,540.93,486,541C487.37,536.57,488.77,532.33,490.31,528.11Z"/><polygon class="cls-8" points="298.94 527.83 303.6 541.04 360.94 550.89 374.68 527.83 298.94 527.83"/><path class="cls-1" d="M299.34,528.11c1.54,4.22,2.94,8.46,4.36,12.89l-.09-.07L361,550.8l-.1,0,13.39-23.27.43.75C349.57,528.34,324.52,528.23,299.34,528.11Zm-.81-.57c25.31-.12,50.76-.23,76.15-.22h.89l-.46.75L361,551l0,0h-.07l-57.34-9.84h-.06l0-.06C301.8,536.7,300.1,532.13,298.53,527.54Z"/></g><g id="front"><path class="cls-4" d="M395.18,313.21c14.21,0,23.56,43.39,23.69,53,.57,39.41-.27,166.52-.27,166.52H371.29V367.18C371.29,353.38,381.8,313.21,395.18,313.21Z"/></g><g id="Layer_15" data-name="Layer 15"><polygon class="cls-1" points="369.18 581.29 366.79 594.82 389.98 594.82 389.98 581.29 369.18 581.29"/><line class="cls-9" x1="366.97" y1="587.26" x2="390.75" y2="587.26"/><line class="cls-9" x1="366.97" y1="592.04" x2="390.75" y2="592.04"/><polygon class="cls-3" points="375.73 581.29 374.33 589.05 383.39 589.05 382 581.29 375.73 581.29"/><path class="cls-2" d="M379.21,554.52c9.75,0,11.05,26.77,11.05,26.77H367.07S368.46,554.52,379.21,554.52Z"/><polygon class="cls-1" points="422.81 581.29 425.2 594.82 402.01 594.82 402.01 581.29 422.81 581.29"/><line class="cls-9" x1="425.01" y1="587.26" x2="401.23" y2="587.26"/><line class="cls-9" x1="425.01" y1="592.04" x2="401.23" y2="592.04"/><polygon class="cls-3" points="416.26 581.29 417.65 589.05 408.59 589.05 409.99 581.29 416.26 581.29"/><path class="cls-2" d="M412.77,554.52c-9.75,0-11,26.77-11,26.77h23.19S423.52,554.52,412.77,554.52Z"/></g><g id="front-top"><path class="cls-1" d="M377.44,337.21h35.24s-7-24-17.5-24S377.44,337.21,377.44,337.21Z"/><polygon class="cls-1" points="383.06 364.05 377.44 364.05 377.44 357.01 395.18 345.57 412.92 356.73 412.92 364.05 407.57 364.05 407.57 357.58 395.18 349.58 383.07 357.58 383.06 364.05"/></g></svg>